<?xml version="1.0" standalone="no"?>
<!DOCTYPE svg PUBLIC "-//W3C//DTD SVG 20010904//EN"
 "http://www.w3.org/TR/2001/REC-SVG-20010904/DTD/svg10.dtd">
<svg version="1.0" xmlns="http://www.w3.org/2000/svg"
 width="512.000000pt" height="512.000000pt" viewBox="0 0 512.000000 512.000000"
 preserveAspectRatio="xMidYMid meet">
<metadata>
Created by potrace 1.11, written by Peter Selinger 2001-2013
</metadata>
<g transform="translate(0.000000,512.000000) scale(0.100000,-0.100000)"
fill="#000000" stroke="none">
<path d="M2670 5061 c-116 -38 -189 -128 -198 -243 -6 -77 19 -149 72 -203
l41 -43 -15 -51 c-9 -28 -20 -55 -25 -60 -6 -5 -48 -12 -95 -15 -85 -6 -143
-13 -190 -21 -94 -18 -94 -18 -117 17 -12 18 -48 73 -82 121 -59 86 -59 89
-41 107 40 40 55 83 54 155 0 101 -42 166 -129 206 -74 34 -128 26 -318 -47
-204 -78 -230 -93 -268 -152 -97 -154 8 -348 194 -355 l51 -2 7 -40 c4 -22 10
-65 14 -95 4 -30 10 -74 14 -97 7 -38 6 -43 -20 -62 -16 -12 -31 -21 -35 -21
-13 0 -192 -141 -266 -209 l-76 -71 -74 31 c-40 17 -76 34 -80 38 -4 3 -10 30
-13 59 -6 63 -25 102 -67 142 -46 45 -87 61 -148 61 -61 0 -112 -18 -151 -53
-43 -39 -179 -226 -193 -266 -62 -179 124 -350 298 -274 l45 21 43 -52 c24
-29 49 -57 57 -63 12 -9 7 -27 -33 -110 -27 -54 -49 -103 -51 -109 -2 -12 -13
-42 -25 -70 -23 -55 -65 -213 -75 -285 -4 -25 -8 -47 -10 -49 -10 -9 -290 -69
-293 -62 -12 35 -71 94 -117 116 -104 51 -216 29 -289 -57 -57 -67 -64 -100
-62 -324 1 -198 1 -199 29 -246 93 -159 310 -165 414 -13 12 18 25 44 29 59 5
20 11 25 28 21 11 -2 59 -13 106 -24 47 -11 100 -22 117 -26 39 -8 41 -11 48
-63 10 -79 38 -122 79 -122 20 0 27 -11 50 -82 l27 -83 -20 -14 c-30 -20 -27
-70 11 -146 38 -78 39 -76 -70 -193 l-77 -83 -31 15 c-76 39 -188 17 -257 -49
-75 -72 -97 -188 -52 -276 29 -55 112 -172 148 -207 46 -45 119 -71 185 -66
119 8 204 93 220 220 l7 56 60 24 c33 14 69 29 80 34 11 5 41 17 66 28 l45 19
75 -70 c87 -83 202 -170 311 -235 l78 -47 -6 -49 c-3 -27 -7 -56 -9 -65 -1 -9
-6 -52 -9 -96 -9 -108 -12 -114 -45 -113 -38 1 -130 -42 -167 -80 -52 -51 -69
-98 -69 -182 1 -87 17 -128 75 -188 33 -34 66 -50 222 -108 158 -60 192 -69
249 -69 110 0 174 58 199 180 7 33 13 81 12 106 0 54 -34 138 -68 170 -13 12
-24 27 -24 33 0 6 20 42 45 79 25 38 45 71 45 73 0 8 73 109 83 116 6 3 20 4
31 2 128 -26 479 -26 606 -1 47 9 95 19 107 21 16 4 28 -5 50 -37 15 -23 52
-74 80 -114 29 -40 53 -78 53 -86 0 -8 -9 -22 -19 -31 -30 -27 -51 -99 -46
-161 8 -116 106 -206 225 -207 64 0 395 130 448 176 96 84 105 232 20 327 -45
50 -96 72 -164 73 -36 0 -64 5 -64 11 0 5 -7 48 -15 95 -9 47 -18 105 -21 130
l-5 45 82 55 c92 62 159 117 240 196 l57 55 73 -30 c100 -42 101 -43 106 -92
6 -57 48 -133 92 -170 93 -77 240 -76 334 1 46 39 120 143 136 191 56 173 -82
352 -264 343 -22 -1 -40 -3 -40 -4 0 -1 -7 -3 -15 -5 -8 -2 -22 -6 -31 -9 -11
-5 -28 7 -55 41 -21 26 -47 57 -57 68 -9 10 -16 22 -15 25 2 3 19 37 39 75 20
39 49 102 64 140 15 39 29 72 31 74 2 2 32 5 66 7 35 2 100 5 145 8 l82 4 12
-36 c17 -54 53 -98 106 -129 131 -76 306 6 337 158 3 13 10 49 16 79 13 62 15
73 36 188 23 126 9 186 -60 256 -98 98 -273 75 -350 -45 l-30 -45 -125 54
c-69 30 -127 55 -128 56 0 0 -4 57 -7 126 -4 69 -9 141 -12 160 -10 67 -35
200 -40 213 -3 8 18 29 52 52 l56 39 41 -21 c72 -36 93 -42 148 -39 118 6 208
77 242 191 19 66 10 124 -38 252 -44 119 -84 172 -159 210 -151 77 -350 -26
-370 -192 -3 -21 -6 -38 -8 -40 -8 -6 -105 -20 -120 -17 -9 2 -30 28 -47 57
-35 61 -61 80 -101 71 -25 -4 -33 2 -78 61 -49 63 -51 67 -37 93 13 24 12 31
-5 65 l-19 37 58 126 57 127 65 1 c72 1 130 22 172 62 84 79 94 214 23 306
-14 19 -63 62 -108 97 -46 34 -85 65 -88 69 -17 21 -131 99 -159 108 -146 50
-296 -49 -305 -201 -3 -61 8 -100 40 -144 l24 -31 -24 -15 c-13 -9 -30 -23
-39 -31 -8 -9 -48 -42 -89 -74 l-73 -59 -75 38 c-83 42 -232 99 -327 125 l-61
17 -7 69 -7 69 45 42 c64 60 90 117 91 197 1 136 -98 254 -229 274 -77 11
-200 16 -225 7z"/>
</g>
</svg>
